<svg width="280" height="280" viewBox="0 0 280 280" fill="none" xmlns="http://www.w3.org/2000/svg">
<g clip-path="url(#clip0_73_1065)">
<rect width="280" height="280" rx="140" fill="#E3F2F1"/>
<path d="M169.655 161.51C169.655 161.51 156.596 187.635 143.326 205.666C138.049 212.844 132.736 218.739 128.204 221.198C123.767 223.603 120.011 227.341 116.903 231.483C108.852 242.208 105.138 255.634 105.138 255.634L71.2264 204.318C71.2264 204.318 72.3838 154.154 76.4566 145.763C82.393 133.535 85.2604 108.829 87.5409 103.91C89.2331 100.261 94.0642 81.412 94.5345 80.027C94.7348 79.4305 96.3433 78.5186 98.4304 78.5186C100.106 78.5186 102.956 80.1381 103.667 83.4649C107.295 100.284 102.928 111.378 102.982 111.87C104.261 124.796 100.415 134.391 103.112 136.932C103.214 137.025 103.399 136.982 103.661 136.813C108.337 133.811 137.361 91.4966 140.936 90.5833C144.697 89.6193 169.655 161.51 169.655 161.51Z" fill="#EFA26F"/>
<path d="M115.347 245.481C115.347 245.481 114.885 268.286 113.564 299H28C47.5576 257.293 64.5619 222.19 64.5619 222.19C64.5619 222.19 113.28 223.678 115.347 245.481Z" fill="#128C7E"/>
<path d="M199.307 73.0955L188.802 88.4939L178.494 103.606C177.866 104.364 177.138 104.629 176.351 104.552C173.883 104.317 170.818 100.751 168.433 98.7747L168.19 98.5758C166.679 97.3181 165.727 95.5135 165.542 93.5561C165.357 91.5988 165.954 89.6478 167.203 88.1292L182.958 69.0844L187.63 63.4374C188.887 61.9258 190.692 60.9733 192.649 60.788C194.607 60.6027 196.558 61.1998 198.077 62.4487L198.319 62.6475C199.83 63.9057 200.782 65.7105 200.967 67.668C201.152 69.6254 200.555 71.5766 199.307 73.0955Z" fill="#FFB27D"/>
<path d="M188.808 88.4935L178.5 103.605C177.872 104.364 177.144 104.628 176.357 104.552L182.964 69.084C182.978 69.2828 184.101 85.1969 188.808 88.4935Z" fill="#EFA26F"/>
<path d="M143.33 205.669C138.053 212.847 132.74 218.742 128.208 221.201C123.771 223.606 120.015 227.344 116.907 231.486C113.332 229.819 109.257 227.864 105.273 225.928C100.423 223.57 100.236 216.684 104.988 214.134C105.034 214.11 105.08 214.085 105.125 214.059C109.578 211.512 114.139 202.517 114.139 202.517L143.33 205.669Z" fill="#D38254"/>
<path d="M94.2845 80.8066L91.5418 91.9033C91.5418 91.9033 93.9444 92.8865 95.4871 92.1227C97.0298 91.3589 98.2846 81.4045 94.2845 80.8066Z" fill="#FFC197"/>
<path d="M173.325 59.8672H114.226C108.388 59.8672 103.655 64.5996 103.655 70.4372V200.343C103.655 206.18 108.388 210.913 114.226 210.913H173.325C179.163 210.913 183.895 206.18 183.895 200.343V70.4372C183.895 64.5996 179.163 59.8672 173.325 59.8672Z" fill="#0B1838"/>
<path d="M179.918 71.4374V198.333C179.918 202.637 176.421 206.159 172.149 206.159H115.4C111.129 206.159 107.633 202.637 107.633 198.333V71.4374C107.633 67.1329 111.129 63.6113 115.4 63.6113H172.155C176.421 63.6113 179.918 67.1329 179.918 71.4374Z" fill="#EAF2FF"/>
<path d="M155.634 60.7529H131.918C129.977 60.7529 128.404 62.3259 128.404 64.2662V64.8175C128.404 66.7578 129.977 68.3308 131.918 68.3308H155.634C157.575 68.3308 159.148 66.7578 159.148 64.8175V64.2662C159.148 62.3259 157.575 60.7529 155.634 60.7529Z" fill="#0B1838"/>
<path d="M194.083 131.248L192.517 131.838L181.983 135.841C181.739 135.934 181.49 136.013 181.237 136.076C179.528 136.514 177.718 136.309 176.151 135.5C174.583 134.691 173.368 133.335 172.735 131.688L172.58 131.284C171.91 129.505 171.971 127.532 172.75 125.798C173.529 124.064 174.962 122.708 176.738 122.027L186.553 118.296L187.267 118.022L188.833 117.427C190.611 116.757 192.583 116.818 194.317 117.597C196.051 118.376 197.406 119.81 198.086 121.584L198.241 121.996C198.91 123.775 198.848 125.746 198.069 127.479C197.29 129.212 195.858 130.567 194.083 131.248Z" fill="#FFB27D"/>
<path d="M185.529 131.489C183.771 132.156 180.592 133.338 178.886 133.582C178.405 133.652 177.515 133.39 176.692 132.485C176.194 131.936 175.72 131.168 175.367 130.096C175.195 129.601 175.074 129.09 175.007 128.571C174.94 127.967 174.96 127.356 175.064 126.757C175.118 126.477 175.238 126.215 175.412 125.99C175.587 125.765 175.812 125.585 176.07 125.464C176.07 125.464 176.07 125.464 176.078 125.464C177.888 124.598 180.329 123.544 182.465 122.958C183.945 122.547 185.441 123.202 185.909 124.497L186.129 125.102L187.261 128.198C187.726 129.477 186.965 130.947 185.529 131.489Z" fill="#FFD3B6"/>
<path d="M185.529 131.489C183.771 132.156 180.592 133.338 178.887 133.582C178.405 133.652 177.515 133.39 176.692 132.485C176.603 132.279 176.522 132.061 176.446 131.829C176.273 131.334 176.152 130.823 176.085 130.303C176.019 129.699 176.038 129.089 176.143 128.49C176.197 128.211 176.316 127.948 176.491 127.723C176.665 127.498 176.89 127.317 177.148 127.196C177.148 127.196 177.148 127.196 177.156 127.196C178.966 126.332 181.407 125.276 183.545 124.692C183.979 124.562 184.437 124.532 184.884 124.603C185.332 124.674 185.757 124.845 186.13 125.103L187.261 128.199C187.726 129.477 186.965 130.947 185.529 131.489Z" fill="#FFC197"/>
<path d="M189.303 146.057L181.181 148.268C179.99 148.589 178.721 148.426 177.651 147.814C176.581 147.202 175.797 146.191 175.47 145.002L175.219 144.083C174.898 142.893 175.062 141.624 175.674 140.554C176.286 139.484 177.297 138.7 178.486 138.373L186.61 136.161C187.799 135.842 189.066 136.007 190.135 136.619C191.203 137.231 191.986 138.24 192.313 139.428L192.564 140.348C192.885 141.537 192.722 142.805 192.111 143.875C191.5 144.944 190.49 145.729 189.303 146.057Z" fill="#FFB27D"/>
<path d="M184.908 145.659C183.416 146.056 180.719 146.756 179.305 146.837C178.791 146.865 177.761 146.425 177.089 145.079C176.909 144.714 176.771 144.329 176.677 143.934C176.572 143.544 176.512 143.143 176.496 142.739C176.486 142.269 176.547 141.8 176.677 141.349C176.746 141.132 176.866 140.936 177.025 140.774C177.185 140.613 177.381 140.492 177.596 140.42C179.144 139.872 181.223 139.22 183.022 138.912C184.265 138.694 185.443 139.292 185.734 140.316L185.943 141.047L186.569 143.241C186.863 144.253 186.13 145.335 184.908 145.659Z" fill="#FFD3B6"/>
<path d="M184.908 145.659C183.416 146.057 180.718 146.757 179.305 146.837C178.79 146.866 177.761 146.426 177.089 145.079C176.993 144.713 176.938 144.337 176.925 143.959C176.915 143.489 176.976 143.02 177.106 142.569C177.176 142.353 177.295 142.156 177.454 141.995C177.614 141.833 177.809 141.712 178.024 141.64C178.024 141.64 178.024 141.64 178.032 141.64C179.58 141.092 181.659 140.442 183.458 140.132C184.487 139.951 185.471 140.331 185.946 141.046L186.571 143.24C186.863 144.254 186.13 145.336 184.908 145.659Z" fill="#FFC197"/>
<path d="M56.2328 239.493C56.2328 239.493 72.9518 255.507 84.2239 261.69L92.7562 255.637V264.566C92.7562 264.566 109.54 267.535 114.834 264.566V240.215L67.6942 216.585L56.2328 239.493Z" fill="#065B52"/>
<path d="M71.2258 202.512C71.2258 202.512 60.6078 218.397 50.0556 235.381C50.0556 235.381 72.2941 250.679 84.352 255.167L100.16 237.054L97.9019 258.857C97.9019 258.857 111.899 263.959 118.392 262.627C118.392 262.627 117.981 242.847 117.981 229.887C117.987 229.886 79.514 219.103 71.2258 202.512Z" fill="#F3F8FF"/>
<path d="M73.8318 242.823C73.8365 242.302 73.9955 241.795 74.2889 241.364C74.5822 240.934 74.9966 240.6 75.4797 240.405C75.9628 240.21 76.4928 240.163 77.0027 240.269C77.5126 240.376 77.9795 240.631 78.3443 241.003C78.709 241.375 78.9553 241.847 79.0519 242.359C79.1485 242.87 79.0911 243.399 78.8869 243.879C78.6828 244.358 78.3411 244.766 77.905 245.051C77.469 245.336 76.9582 245.485 76.4373 245.48C75.7399 245.472 75.0739 245.188 74.5855 244.69C74.097 244.192 73.826 243.521 73.8318 242.823Z" fill="#128C7E"/>
<path d="M193.822 115.679L193.646 115.738L182.997 118.473C178.314 119.677 173.472 117.143 172.236 112.85L171.607 110.64C170.418 106.512 172.978 102.195 177.322 100.795L180.838 99.8929L187.969 98.0608C192.651 96.8582 197.494 99.3923 198.73 103.691L199.363 105.894C200.541 109.967 198.073 114.22 193.822 115.679Z" fill="#FFB27D"/>
<path d="M188.946 112.706L183.772 115.038L183.739 115.046C183.533 115.101 183.325 115.144 183.114 115.175C183.027 115.188 182.938 115.198 182.852 115.208C182.815 115.211 182.779 115.211 182.742 115.208C182.608 115.202 182.476 115.163 182.36 115.095C182.244 115.027 182.146 114.931 182.076 114.816C182.005 114.701 181.964 114.571 181.955 114.437C181.947 114.302 181.972 114.167 182.028 114.045C182.535 112.946 182.639 111.704 182.321 110.537L182.198 110.086C182.198 110.081 182.198 110.077 182.198 110.072L181.797 108.603C181.491 107.476 180.834 106.474 179.921 105.744C179.816 105.658 179.706 105.577 179.595 105.5C178.572 104.791 178.833 103.187 180.03 102.855L180.063 102.845L185.74 101.986C187.144 101.604 188.496 102.685 188.879 104.089L189.336 105.762L190.306 109.327C190.684 110.736 190.35 112.325 188.946 112.706Z" fill="#FFD3B6"/>
<path d="M188.946 112.706L183.772 115.037L183.739 115.045C183.619 115.069 183.239 115.132 182.742 115.208C182.608 115.203 182.476 115.164 182.36 115.096C182.244 115.028 182.146 114.932 182.076 114.817C182.005 114.702 181.964 114.572 181.956 114.437C181.947 114.303 181.972 114.168 182.028 114.046C182.535 112.947 182.639 111.705 182.321 110.538L182.198 110.087C182.198 110.082 182.198 110.077 182.198 110.073L181.797 108.604C181.491 107.476 180.834 106.475 179.922 105.745C180.116 105.461 180.404 105.255 180.736 105.165L180.769 105.155L186.448 104.297C187.63 103.976 188.779 104.692 189.336 105.763L190.306 109.328C190.684 110.735 190.35 112.325 188.946 112.706Z" fill="#FFC197"/>
<path d="M103.656 171.074C103.656 171.074 101.333 150.794 99.1892 146.839C97.0458 142.884 95.2316 134.963 98.5296 129.079C101.828 123.195 102.966 111.869 102.966 111.869C104.245 124.795 100.399 134.39 103.096 136.931C103.198 137.024 103.383 136.981 103.645 136.812L103.656 171.074Z" fill="#D38254"/>
<g clip-path="url(#clip1_73_1065)">
<path d="M125.105 158.657L127.986 148.181C126.209 145.115 125.274 141.637 125.275 138.075C125.279 126.929 134.391 117.86 145.586 117.86C151.02 117.863 156.119 119.968 159.954 123.789C163.789 127.61 165.9 132.689 165.898 138.091C165.893 149.237 156.781 158.306 145.587 158.306C145.586 158.306 145.588 158.306 145.587 158.306H145.578C142.179 158.305 138.839 157.455 135.872 155.846L125.105 158.657Z" fill="#128C7E"/>
<path fill-rule="evenodd" clip-rule="evenodd" d="M140.33 129.315C139.936 128.443 139.521 128.426 139.147 128.411C138.84 128.398 138.489 128.398 138.139 128.398C137.789 128.398 137.219 128.53 136.737 129.053C136.255 129.577 134.897 130.843 134.897 133.418C134.897 135.994 136.781 138.482 137.044 138.831C137.307 139.18 140.681 144.634 146.024 146.732C150.465 148.475 151.369 148.128 152.333 148.041C153.297 147.954 155.443 146.775 155.881 145.553C156.319 144.331 156.319 143.284 156.188 143.065C156.056 142.847 155.706 142.716 155.18 142.454C154.654 142.192 152.07 140.926 151.588 140.751C151.106 140.577 150.755 140.49 150.405 141.014C150.054 141.537 149.047 142.716 148.741 143.065C148.434 143.414 148.127 143.458 147.602 143.196C147.076 142.934 145.383 142.382 143.374 140.599C141.811 139.211 140.756 137.498 140.449 136.974C140.143 136.451 140.416 136.167 140.68 135.906C140.916 135.672 141.206 135.295 141.469 134.99C141.731 134.684 141.819 134.466 141.994 134.117C142.169 133.767 142.082 133.462 141.95 133.2C141.819 132.938 140.797 130.35 140.33 129.315Z" fill="white"/>
</g>
</g>
<defs>
<clipPath id="clip0_73_1065">
<rect width="280" height="280" rx="140" fill="white"/>
</clipPath>
<clipPath id="clip1_73_1065">
<rect width="42.75" height="42.75" fill="white" transform="translate(124.125 117.125)"/>
</clipPath>
</defs>
</svg>
