<svg width="70" height="70" viewBox="0 0 70 70" fill="none" xmlns="http://www.w3.org/2000/svg">
<path fill-rule="evenodd" clip-rule="evenodd" d="M50.7937 41.9475C49.9245 41.513 45.6633 39.4188 44.8699 39.1271C44.0766 38.8384 43.4991 38.6955 42.9187 39.5646C42.3412 40.428 40.6816 42.3821 40.177 42.9596C39.6695 43.54 39.1649 43.61 38.2987 43.1784C37.4324 42.7409 34.6383 41.828 31.3279 38.8763C28.7525 36.578 27.0112 33.7401 26.5066 32.8709C26.002 32.0047 26.4512 31.5351 26.8858 31.1034C27.2766 30.7155 27.752 30.0913 28.1866 29.5867C28.6212 29.0792 28.7641 28.7176 29.0529 28.1372C29.3445 27.5597 29.1987 27.0551 28.9799 26.6205C28.7641 26.1859 27.0316 21.9188 26.3083 20.1834C25.6054 18.4947 24.8908 18.7251 24.36 18.6959C23.8525 18.6726 23.275 18.6668 22.6975 18.6668C22.12 18.6668 21.1808 18.8826 20.3875 19.7518C19.5912 20.618 17.3541 22.7151 17.3541 26.9822C17.3541 31.2463 20.4575 35.3676 20.892 35.948C21.3266 36.5255 27.0025 45.2813 35.697 49.035C37.7679 49.9275 39.3808 50.4613 40.6378 50.8579C42.7145 51.52 44.6045 51.4267 46.0978 51.2021C47.7603 50.9542 51.2253 49.105 51.9487 47.0809C52.6691 45.0567 52.6691 43.3213 52.4532 42.9596C52.2374 42.598 51.6599 42.3821 50.7907 41.9475H50.7937ZM34.9795 63.5396H34.9679C29.8037 63.5405 24.7344 62.1523 20.2912 59.5204L19.2412 58.8963L8.32707 61.7604L11.2408 51.1204L10.5554 50.0296C7.66831 45.434 6.14043 40.1152 6.14832 34.688C6.15416 18.7922 19.0866 5.85969 34.9912 5.85969C42.6912 5.85969 49.9303 8.86385 55.3728 14.3122C58.0573 16.9855 60.1849 20.1647 61.6328 23.6656C63.0806 27.1666 63.8199 30.9199 63.8078 34.7084C63.802 50.6042 50.8695 63.5396 34.9795 63.5396ZM59.5145 10.1734C56.3009 6.93863 52.4773 4.37376 48.2652 2.62745C44.0531 0.881137 39.5363 -0.011889 34.9766 0.000119518C15.8608 0.000119518 0.2975 15.5605 0.291666 34.6851C0.28875 40.7984 1.88416 46.7659 4.92041 52.0246L0 70L18.3866 65.1758C23.4729 67.947 29.1727 69.399 34.9649 69.3992H34.9795C54.0953 69.3992 69.6586 53.8388 69.6645 34.7113C69.6786 30.1534 68.7888 25.6379 67.0466 21.426C65.3043 17.2142 62.7443 13.3896 59.5145 10.1734Z" fill="#787878"/>
</svg>
